<svg xmlns="http://www.w3.org/2000/svg" xmlns:xlink="http://www.w3.org/1999/xlink" width="100" zoomAndPan="magnify" viewBox="0 0 75 74.999997" height="100" preserveAspectRatio="xMidYMid meet" version="1.0"><defs><clipPath id="204b1b2f0b"><path d="M 10.15625 10.15625 L 64.84375 10.15625 L 64.84375 64.84375 L 10.15625 64.84375 Z M 10.15625 10.15625 " clip-rule="nonzero"/></clipPath><clipPath id="d35f1739f0"><path d="M 37.5 10.15625 C 22.398438 10.15625 10.15625 22.398438 10.15625 37.5 C 10.15625 52.601562 22.398438 64.84375 37.5 64.84375 C 52.601562 64.84375 64.84375 52.601562 64.84375 37.5 C 64.84375 22.398438 52.601562 10.15625 37.5 10.15625 Z M 37.5 10.15625 " clip-rule="nonzero"/></clipPath><clipPath id="ee073fecc9"><path d="M 0.15625 0.15625 L 54.84375 0.15625 L 54.84375 54.84375 L 0.15625 54.84375 Z M 0.15625 0.15625 " clip-rule="nonzero"/></clipPath><clipPath id="d17359124e"><path d="M 27.5 0.15625 C 12.398438 0.15625 0.15625 12.398438 0.15625 27.5 C 0.15625 42.601562 12.398438 54.84375 27.5 54.84375 C 42.601562 54.84375 54.84375 42.601562 54.84375 27.5 C 54.84375 12.398438 42.601562 0.15625 27.5 0.15625 Z M 27.5 0.15625 " clip-rule="nonzero"/></clipPath><clipPath id="62d1858899"><rect x="0" width="55" y="0" height="55"/></clipPath></defs><rect x="-7.5" width="90" fill="#ffffff" y="-7.5" height="89.999996" fill-opacity="1"/><rect x="-7.5" width="90" fill="#121826" y="-7.5" height="89.999996" fill-opacity="1"/><g clip-path="url(#204b1b2f0b)"><g clip-path="url(#d35f1739f0)"><g transform="matrix(1, 0, 0, 1, 10, 10)"><g clip-path="url(#62d1858899)"><g clip-path="url(#ee073fecc9)"><g clip-path="url(#d17359124e)"><path fill="#2cae93" d="M 0.15625 0.15625 L 54.84375 0.15625 L 54.84375 54.84375 L 0.15625 54.84375 Z M 0.15625 0.15625 " fill-opacity="1" fill-rule="nonzero"/></g></g></g></g></g></g></svg>